<svg width="11" height="9" viewBox="0 0 11 9" fill="none" xmlns="http://www.w3.org/2000/svg">
<path d="M7.79126 0.5625C9.02762 0.5625 10.0413 1.57614 10.0413 2.8125C10.0413 3.34949 9.79286 3.9333 9.35083 4.53613C8.9125 5.13385 8.31718 5.70562 7.70435 6.20703C7.09398 6.70642 6.48045 7.12419 6.0188 7.41797C5.80901 7.55147 5.63082 7.65754 5.50024 7.73438C5.36959 7.65694 5.19148 7.54934 4.98169 7.41504C4.51991 7.11942 3.90664 6.69913 3.29614 6.19824C2.68314 5.69528 2.08717 5.12331 1.64868 4.52637C1.2061 3.92382 0.958252 3.34297 0.958252 2.8125C0.958252 1.57614 1.97189 0.5625 3.20825 0.5625C3.95095 0.5625 4.60213 0.909273 5.00122 1.45605L5.07837 1.56836L5.50024 2.23145L5.92212 1.56836C6.31109 0.957284 6.99907 0.562608 7.79126 0.5625Z" fill="white" stroke="#FF9401"/>
</svg>
